<svg version="1.1" viewBox="0.0 0.0 960.0 540.0" fill="none" stroke="none" stroke-linecap="square" stroke-miterlimit="10" xmlns:xlink="http://www.w3.org/1999/xlink" xmlns="http://www.w3.org/2000/svg"><clipPath id="g2868003954a_0_316.0"><path d="m0 0l960.0 0l0 540.0l-960.0 0l0 -540.0z" clip-rule="nonzero"/></clipPath><g clip-path="url(#g2868003954a_0_316.0)"><path fill="#000000" d="m0 0l960.0 0l0 540.0l-960.0 0z" fill-rule="evenodd"/><path fill="#000000" fill-opacity="0.0" d="m33.93961 128.14174l679.685 0l0 205.60628l-679.685 0z" fill-rule="evenodd"/><path fill="#ffffff" d="m98.73649 231.90367l0 7.796875l-23.203125 0l0 61.687485l-9.21875 0l0 -61.687485l-23.187504 0l0 -7.796875l55.60938 0zm14.590759 0l0 26.57811l0.1875 0q1.796875 -4.0468597 6.125 -6.2968597q4.328125 -2.265625 9.796867 -2.265625q9.078125 0 13.1875 4.65625q4.109375 4.6562347 4.109375 13.312485l0 33.5l-8.265625 0l0 -34.359375q0 -4.28125 -2.734375 -7.0625q-2.734375 -2.78125 -7.578125 -2.78125q-6.9843674 0 -10.906242 4.3125q-3.921875 4.296875 -3.921875 11.140625l0 28.75l-8.28125 0l0 -69.48436l8.28125 0zm66.42614 18.015625q10.265625 0 14.5625 3.65625q4.3125 3.6562347 4.3125 9.79686q0 26.1875 0 29.046875q0 2.84375 2.609375 2.84375q0.578125 0 1.234375 -0.140625q0.671875 -0.15625 1.28125 -0.34375l0 6.421875q-1.140625 0.65625 -2.640625 1.015625q-1.484375 0.359375 -3.25 0.359375q-3.421875 0 -5.234375 -1.921875q-1.796875 -1.921875 -1.796875 -5.875q-3.28125 3.90625 -7.75 5.859375q-4.46875 1.9375 -9.96875 1.9375q-7.796875 0 -12.21875 -3.671875q-4.421875 -3.6875 -4.421875 -10.4375q0 -6.796875 4.328125 -10.765625q4.328125 -3.96875 20.34375 -5.96875q5.40625 -0.71875 7.328125 -2.09375q1.9375 -1.375 1.9375 -4.125q0 -4.1875 -2.6875 -6.25q-2.6875 -2.078125 -8.53125 -2.078125q-6.125 0 -9.203125 2.328125q-3.0625 2.328125 -3.296875 7.234375l-8.265625 0q0.375 -8.375 5.890625 -12.593735q5.515625 -4.234375 15.4375 -4.234375zm-14.53125 37.92186q0 3.515625 2.5625 5.46875q2.5625 1.953125 7.171875 1.953125q6.984375 0 11.171875 -3.46875q4.1875 -3.46875 4.1875 -7.75l0 -8.65625q-2.09375 1.484375 -5.421875 2.0q-3.328125 0.515625 -8.84375 1.28125q-5.515625 0.8125 -8.171875 3.0q-2.65625 2.1875 -2.65625 6.171875zm70.6196 -37.92186q9.078125 0 13.1875 4.65625q4.109375 4.6562347 4.109375 13.312485l0 33.5l-8.265625 0l0 -34.359375q0 -4.28125 -2.734375 -7.0625q-2.734375 -2.78125 -7.578125 -2.78125q-6.984375 0 -10.90625 4.3125q-3.921875 4.296875 -3.921875 11.140625l0 28.75l-8.28125 0l0 -50.32811l7.796875 0l0 7.9843597l0.1875 0q2.765625 -4.7031097 6.78125 -6.9062347q4.015625 -2.21875 9.625 -2.21875zm38.488647 -18.015625l0 41.156235l23.0 -21.999985l11.078125 0l-19.96875 18.29686l21.4375 32.03125l-10.5 0l-17.25 -26.28125l-7.796875 7.21875l0 19.0625l-8.265625 0l0 -69.48436l8.265625 0zm72.71463 19.15625l14.6875 41.156235l0.1875 0l14.109375 -41.156235l8.796875 0l-21.390625 55.70311q-3.375 8.6875 -6.484375 11.734375q-3.109375 3.046875 -8.625 3.046875q-1.515625 0 -2.953125 -0.203125q-1.421875 -0.1875 -2.796875 -0.65625l0 -7.609375q1.1875 0.390625 2.390625 0.765625q1.21875 0.375 2.453125 0.375q5.046875 0 7.03125 -5.046875q2.0 -5.03125 3.1875 -8.0625l-19.953125 -50.04686l9.359375 0zm66.47656 -1.140625q11.40625 0 17.921875 7.3749847q6.515625 7.359375 6.515625 19.0q0 11.734375 -6.65625 19.015625q-6.65625 7.265625 -17.78125 7.265625q-10.921875 0 -17.671875 -7.140625q-6.75 -7.15625 -6.75 -19.140625q0 -11.96875 6.609375 -19.171875q6.609375 -7.2031097 17.8125 -7.2031097zm-15.671875 26.374985q0 8.65625 4.40625 13.8125q4.421875 5.15625 11.265625 5.15625q6.796875 0 11.234375 -5.171875q4.453125 -5.1875 4.453125 -13.796875q0 -8.59375 -4.421875 -13.84375q-4.421875 -5.265625 -11.359375 -5.265625q-6.640625 0 -11.109375 5.15625q-4.46875 5.15625 -4.46875 13.953125zm58.12201 -25.23436l0 34.312485q0 4.28125 2.71875 7.09375q2.734375 2.796875 7.546875 2.796875q7.125 0 11.0 -4.34375q3.875 -4.359375 3.875 -11.109375l0 -28.749985l8.265625 0l0 50.32811l-7.796875 0l0 -7.984375l-0.1875 0q-2.765625 4.796875 -6.90625 6.984375q-4.125 2.1875 -9.484375 2.1875q-8.796875 0 -13.0625 -4.53125q-4.25 -4.546875 -4.25 -13.4375l0 -33.54686l8.28125 0zm58.488678 39.54686l0 10.78125l-10.7812805 0l0 -10.78125l10.7812805 0z" fill-rule="nonzero"/></g></svg>