<svg version="1.1" viewBox="0.0 0.0 960.0 540.0" fill="none" stroke="none" stroke-linecap="square" stroke-miterlimit="10" xmlns:xlink="http://www.w3.org/1999/xlink" xmlns="http://www.w3.org/2000/svg"><clipPath id="g2868003954a_0_304.0"><path d="m0 0l960.0 0l0 540.0l-960.0 0l0 -540.0z" clip-rule="nonzero"/></clipPath><g clip-path="url(#g2868003954a_0_304.0)"><path fill="#000000" d="m0 0l960.0 0l0 540.0l-960.0 0z" fill-rule="evenodd"/><path fill="#000000" fill-opacity="0.0" d="m33.93961 128.14174l679.685 0l0 205.60628l-679.685 0z" fill-rule="evenodd"/><path fill="#ffffff" d="m79.90836 230.24742q10.125 0 17.65625 4.6875q7.53125 4.671875 11.59375 13.15625q4.0625 8.48436 4.0625 18.562485q0 7.78125 -2.5625 15.015625q-2.5625 7.21875 -7.984375 12.59375l9.171875 7.3125l-4.65625 5.84375l-10.640625 -8.546875q-3.46875 2.09375 -7.625 3.125q-4.15625 1.046875 -9.015625 1.046875q-10.015625 0 -17.562504 -4.671875q-7.53125 -4.6875 -11.625 -13.09375q-4.078125 -8.40625 -4.078125 -18.625q0 -15.781235 9.078125 -26.093735q9.078129 -10.3125 24.187504 -10.3125zm-24.046879 36.406235q0 7.734375 2.828125 14.4375q2.828125 6.703125 8.312504 10.4375q5.5 3.734375 12.90625 3.734375q2.578125 0 4.96875 -0.5q2.40625 -0.5 4.6875 -1.453125l-7.703125 -6.125l4.890625 -5.65625l9.21875 7.40625q3.859375 -3.84375 5.921875 -9.640625q2.0625 -5.796875 2.0625 -12.640625q0 -12.35936 -6.375 -20.48436q-6.359375 -8.125 -17.765625 -8.125q-11.171875 0 -17.562504 8.171875q-6.390625 8.171875 -6.390625 20.437485zm88.49344 -34.749985q7.265625 0 12.046875 3.90625q4.78125 3.890625 4.78125 10.3125q0 5.21875 -3.328125 9.78125q-3.328125 4.5624847 -9.75 8.218735l12.59375 15.265625q0.90625 -2.5625 1.5 -5.203125q0.59375 -2.640625 0.734375 -5.59375l7.890625 0q-0.609375 6.0 -1.46875 9.046875q-0.859375 3.03125 -3.234375 8.0625l13.546875 15.6875l-10.796875 0l-7.40625 -8.609375q-3.0 4.5625 -8.328125 7.1875q-5.3125 2.609375 -11.390625 2.609375q-10.453125 0 -16.046867 -5.4375q-5.578125 -5.4375 -5.578125 -13.625q0 -6.453125 3.75 -11.46875q3.75 -5.015625 12.499992 -9.484375l-3.28125 -4.421875q-2.1875 -2.9374847 -3.3125 -5.7656097q-1.109375 -2.828125 -1.109375 -6.15625q0 -6.03125 4.296875 -10.171875q4.3125 -4.140625 11.390625 -4.140625zm-7.40625 14.640625q0 2.234375 1.328125 4.703125q1.328125 2.46875 5.359375 7.4218597q5.375 -3.4218597 7.3125 -6.1718597q1.953125 -2.765625 1.953125 -5.90625q0 -3.046875 -2.203125 -5.21875q-2.203125 -2.1875 -5.828125 -2.1875q-3.125 0 -5.53125 2.0q-2.390625 1.984375 -2.390625 5.359375zm-8.09375 36.874985q0 5.046875 3.984375 8.453125q4.0 3.390625 9.234375 3.390625q4.609375 0 8.390625 -2.15625q3.78125 -2.171875 6.4375 -6.125l-16.015625 -19.1875q-6.5625 3.609375 -9.296875 7.171875q-2.734375 3.5625 -2.734375 8.453125zm86.02406 -51.51561l27.140625 69.48436l-10.21875 0l-7.5625 -20.90625l-29.40625 0l-7.796875 20.90625l-9.515625 0l27.140625 -69.48436l10.21875 0zm-5.375 8.375l-11.734375 32.406235l23.53125 0l-11.546875 -32.406235l-0.25 0z" fill-rule="nonzero"/></g></svg>