<svg version="1.1" viewBox="0.0 0.0 960.0 540.0" fill="none" stroke="none" stroke-linecap="square" stroke-miterlimit="10" xmlns:xlink="http://www.w3.org/1999/xlink" xmlns="http://www.w3.org/2000/svg"><clipPath id="p.0"><path d="m0 0l960.0 0l0 540.0l-960.0 0l0 -540.0z" clip-rule="nonzero"/></clipPath><g clip-path="url(#p.0)"><path fill="#000000" d="m0 0l960.0 0l0 540.0l-960.0 0z" fill-rule="evenodd"/><path fill="#000000" fill-opacity="0.0" d="m32.725285 78.1706l894.55115 0l0 215.49606l-894.55115 0z" fill-rule="evenodd"/><path fill="#ffffff" d="m188.42703 217.3548q7.203125 0 12.546875 3.34375q5.359375 3.328125 8.265625 9.375q2.90625 6.03125 2.90625 13.203125q0 7.25 -2.890625 13.265625q-2.890625 6.0 -8.296875 9.34375q-5.390625 3.328125 -12.53125 3.328125q-7.15625 0 -12.515625 -3.3125q-5.359375 -3.328125 -8.28125 -9.328125q-2.90625 -6.015625 -2.90625 -13.296875q0 -11.234375 6.4375 -18.578125q6.453125 -7.34375 17.265625 -7.34375zm-17.140625 25.921875q0 5.515625 2.015625 10.296875q2.015625 4.765625 5.921875 7.4375q3.921875 2.65625 9.203125 2.65625q7.953125 0 12.53125 -5.734375q4.59375 -5.75 4.59375 -14.65625q0 -8.796875 -4.546875 -14.578125q-4.53125 -5.796875 -12.65625 -5.796875q-7.953125 0 -12.515625 5.828125q-4.546875 5.8125 -4.546875 14.546875zm65.57938 -11.90625q7.6875 0 12.09375 5.28125q4.421875 5.28125 4.421875 13.5625q0 8.328125 -4.40625 13.5q-4.390625 5.15625 -11.9375 5.15625q-3.359375 0 -6.5625 -1.375q-3.1875 -1.390625 -5.0625 -4.234375l-0.125 0l0 18.515625l-5.890625 0l0 -49.59375l5.890625 0l0 4.875l0.125 0q1.390625 -2.78125 4.390625 -4.234375q3.0 -1.453125 7.0625 -1.453125zm-11.78125 18.71875q0 6.21875 3.0 9.90625q3.015625 3.671875 8.296875 3.671875q5.125 0 7.921875 -3.65625q2.8125 -3.65625 2.8125 -10.203125q0 -5.78125 -2.96875 -9.515625q-2.953125 -3.75 -8.171875 -3.75q-5.171875 0 -8.03125 3.796875q-2.859375 3.78125 -2.859375 9.75zm50.095886 -18.71875q7.71875 0 11.984375 5.546875q4.265625 5.546875 4.265625 14.25l0 0.71875l-26.84375 0l0 0.4375q0 5.109375 2.96875 8.234375q2.984375 3.109375 8.203125 3.109375q3.921875 0 6.234375 -1.828125q2.328125 -1.828125 3.046875 -5.1875l5.8125 0q-1.1875 5.953125 -5.21875 9.09375q-4.015625 3.125 -10.078125 3.125q-5.65625 0 -9.5625 -2.546875q-3.90625 -2.5625 -5.78125 -7.109375q-1.859375 -4.5625 -1.859375 -9.328125q0 -7.921875 4.765625 -13.21875q4.78125 -5.296875 12.0625 -5.296875zm-10.59375 15.296875l20.578125 0q-0.265625 -4.375 -3.171875 -7.25q-2.890625 -2.875 -7.21875 -2.875q-4.0625 0 -6.9375 2.75q-2.875 2.734375 -3.25 7.375zm50.299255 -15.296875q6.46875 0 9.390625 3.3125q2.9375 3.3125 2.9375 9.484375l0 23.859375l-5.890625 0l0 -24.46875q0 -3.046875 -1.953125 -5.03125q-1.9375 -1.984375 -5.390625 -1.984375q-4.984375 0 -7.78125 3.0625q-2.78125 3.0625 -2.78125 7.9375l0 20.484375l-5.890625 0l0 -35.84375l5.546875 0l0 5.6875l0.140625 0q1.953125 -3.359375 4.8125 -4.921875q2.875 -1.578125 6.859375 -1.578125zm48.006104 -12.828125l0 43.9375l26.203125 0l0 5.546875l-32.765625 0l0 -49.484375l6.5625 0zm45.66638 12.828125q7.3125 0 10.375 2.609375q3.0625 2.59375 3.0625 6.96875q0 18.65625 0 20.6875q0 2.03125 1.859375 2.03125q0.40625 0 0.875 -0.09375q0.484375 -0.109375 0.921875 -0.25l0 4.5625q-0.8125 0.484375 -1.875 0.734375q-1.0625 0.25 -2.328125 0.25q-2.4375 0 -3.71875 -1.359375q-1.28125 -1.375 -1.28125 -4.1875q-2.34375 2.78125 -5.53125 4.171875q-3.171875 1.375 -7.09375 1.375q-5.5625 0 -8.71875 -2.625q-3.140625 -2.625 -3.140625 -7.421875q0 -4.84375 3.078125 -7.671875q3.09375 -2.828125 14.5 -4.25q3.859375 -0.5 5.21875 -1.484375q1.375 -0.984375 1.375 -2.953125q0 -2.96875 -1.921875 -4.4375q-1.90625 -1.484375 -6.0625 -1.484375q-4.375 0 -6.5625 1.65625q-2.171875 1.65625 -2.34375 5.15625l-5.890625 0q0.265625 -5.96875 4.1875 -8.96875q3.9375 -3.015625 11.015625 -3.015625zm-10.359375 27.015625q0 2.5 1.828125 3.890625q1.828125 1.390625 5.109375 1.390625q4.984375 0 7.953125 -2.46875q2.984375 -2.484375 2.984375 -5.53125l0 -6.15625q-1.484375 1.046875 -3.859375 1.421875q-2.375 0.375 -6.296875 0.90625q-3.921875 0.578125 -5.828125 2.140625q-1.890625 1.5625 -1.890625 4.40625zm39.03366 -39.84375l0 18.515625l0.125 0q1.390625 -2.78125 4.34375 -4.234375q2.96875 -1.453125 7.109375 -1.453125q7.6875 0 12.09375 5.28125q4.421875 5.28125 4.421875 13.5625q0 8.328125 -4.40625 13.5q-4.390625 5.15625 -11.9375 5.15625q-3.359375 0 -6.5625 -1.375q-3.1875 -1.390625 -5.0625 -4.234375l-0.125 0l0 4.765625l-5.890625 0l0 -49.484375l5.890625 0zm-0.203125 31.546875q0 6.21875 3.0 9.90625q3.015625 3.671875 8.296875 3.671875q5.125 0 7.921875 -3.65625q2.8125 -3.65625 2.8125 -10.203125q0 -5.78125 -2.96875 -9.515625q-2.953125 -3.75 -8.171875 -3.75q-5.171875 0 -8.03125 3.796875q-2.859375 3.78125 -2.859375 9.75zm76.17001 -31.546875l19.328125 49.484375l-7.28125 0l-5.390625 -14.890625l-20.953156 0l-5.546875 14.890625l-6.765625 0l19.328125 -49.484375l7.2812805 0zm-3.8281555 5.953125l-8.359375 23.078125l16.75003 0l-8.2187805 -23.078125l-0.171875 0zm44.405487 6.875q6.46875 0 9.390625 3.3125q2.9375 3.3125 2.9375 9.484375l0 23.859375l-5.890625 0l0 -24.46875q0 -3.046875 -1.953125 -5.03125q-1.9375 -1.984375 -5.390625 -1.984375q-4.984375 0 -7.78125 3.0625q-2.78125 3.0625 -2.78125 7.9375l0 20.484375l-5.890625 0l0 -35.84375l5.546875 0l0 5.6875l0.140625 0q1.953125 -3.359375 4.8125 -4.921875q2.875 -1.578125 6.859375 -1.578125zm27.416382 -12.828125l0 7.203125l-5.890625 0l0 -7.203125l5.890625 0zm0 13.640625l0 35.84375l-5.890625 0l0 -35.84375l5.890625 0zm26.44934 -0.8125q3.921875 0 6.40625 1.59375q2.5 1.578125 3.4375 4.5q1.828125 -2.890625 4.765625 -4.484375q2.953125 -1.609375 6.515625 -1.609375q6.046875 0 8.953125 2.75q2.921875 2.734375 2.921875 7.40625l0 26.5l-5.890625 0l0 -23.765625q0 -3.859375 -1.640625 -5.78125q-1.640625 -1.9375 -5.296875 -1.9375q-4.40625 0 -6.875 2.578125q-2.46875 2.5625 -2.46875 6.390625l0 22.515625l-5.921875 0l0 -23.765625q0 -3.859375 -1.625 -5.78125q-1.625 -1.9375 -5.078125 -1.9375q-2.8125 0 -4.984375 1.359375q-2.15625 1.34375 -3.375 3.703125q-1.21875 2.359375 -1.21875 3.984375l0 22.4375l-5.890625 0l0 -35.84375l5.546875 0l0 5.28125l0.140625 0q2.03125 -3.09375 4.90625 -4.59375q2.875 -1.5 6.671875 -1.5zm56.52942 0q7.3125 0 10.375 2.609375q3.0625 2.59375 3.0625 6.96875q0 18.65625 0 20.6875q0 2.03125 1.859375 2.03125q0.40625 0 0.875 -0.09375q0.484375 -0.109375 0.921875 -0.25l0 4.5625q-0.8125 0.484375 -1.875 0.734375q-1.0625 0.25 -2.328125 0.25q-2.4375 0 -3.71875 -1.359375q-1.28125 -1.375 -1.28125 -4.1875q-2.34375 2.78125 -5.53125 4.171875q-3.171875 1.375 -7.09375 1.375q-5.5625 0 -8.71875 -2.625q-3.140625 -2.625 -3.140625 -7.421875q0 -4.84375 3.078125 -7.671875q3.09375 -2.828125 14.5 -4.25q3.859375 -0.5 5.21875 -1.484375q1.375 -0.984375 1.375 -2.953125q0 -2.96875 -1.921875 -4.4375q-1.90625 -1.484375 -6.0625 -1.484375q-4.375 0 -6.5625 1.65625q-2.171875 1.65625 -2.34375 5.15625l-5.890625 0q0.265625 -5.96875 4.1875 -8.96875q3.9375 -3.015625 11.015625 -3.015625zm-10.359375 27.015625q0 2.5 1.828125 3.890625q1.828125 1.390625 5.109375 1.390625q4.984375 0 7.953125 -2.46875q2.984375 -2.484375 2.984375 -5.53125l0 -6.15625q-1.484375 1.046875 -3.859375 1.421875q-2.375 0.375 -6.296875 0.90625q-3.921875 0.578125 -5.828125 2.140625q-1.890625 1.5625 -1.890625 4.40625zm41.12744 -36.9375l0 10.734375l7.140625 0l0 5.203125l-7.140625 0l0 22.453125q0 2.671875 1.78125 2.828125q1.78125 0.140625 3.703125 0.140625l1.65625 0l0 5.21875l-4.875 0q-4.84375 0 -6.5 -1.71875q-1.65625 -1.734375 -1.65625 -5.796875l0 -23.125l-6.125 0l0 -5.203125l6.125 0l0 -10.734375l5.890625 0zm19.865479 -2.90625l0 7.203125l-5.890625 0l0 -7.203125l5.890625 0zm0 13.640625l0 35.84375l-5.890625 0l0 -35.84375l5.890625 0zm24.652588 -0.8125q8.125 0 12.75 5.25q4.640625 5.234375 4.640625 13.53125q0 8.359375 -4.734375 13.546875q-4.734375 5.171875 -12.65625 5.171875q-7.78125 0 -12.59375 -5.09375q-4.8125 -5.09375 -4.8125 -13.625q0 -8.53125 4.703125 -13.65625q4.71875 -5.125 12.703125 -5.125zm-11.171875 18.78125q0 6.15625 3.140625 9.84375q3.15625 3.671875 8.03125 3.671875q4.84375 0 8.0 -3.6875q3.171875 -3.703125 3.171875 -9.828125q0 -6.125 -3.15625 -9.859375q-3.140625 -3.75 -8.078125 -3.75q-4.75 0 -7.9375 3.671875q-3.171875 3.671875 -3.171875 9.9375zm52.87195 -18.78125q6.46875 0 9.390625 3.3125q2.9375 3.3125 2.9375 9.484375l0 23.859375l-5.890625 0l0 -24.46875q0 -3.046875 -1.953125 -5.03125q-1.9375 -1.984375 -5.390625 -1.984375q-4.984375 0 -7.78125 3.0625q-2.78125 3.0625 -2.78125 7.9375l0 20.484375l-5.890625 0l0 -35.84375l5.546875 0l0 5.6875l0.140625 0q1.953125 -3.359375 4.8125 -4.921875q2.875 -1.578125 6.859375 -1.578125z" fill-rule="nonzero"/><path fill="#000000" fill-opacity="0.0" d="m32.72441 301.18634l894.55115 0l0 83.212616l-894.55115 0z" fill-rule="evenodd"/><path fill="#adadad" d="m323.05557 311.86786l0 16.71875q0 2.625 -1.65625 4.296875q-1.640625 1.65625 -4.875 1.65625q-2.984375 0 -4.71875 -1.578125q-1.734375 -1.59375 -1.734375 -5.46875l0 -0.765625l2.953125 0l0 0.671875q0 2.734375 0.875 3.703125q0.890625 0.953125 2.671875 0.953125q1.828125 0 2.6875 -0.953125q0.859375 -0.96875 0.859375 -2.921875l0 -16.3125l2.9375 0zm7.1921997 0l0 3.21875l-2.625 0l0 -3.21875l2.625 0zm0 6.109375l0 16.03125l-2.625 0l0 -16.03125l2.625 0zm11.828186 -0.375q1.765625 0 2.875 0.71875q1.109375 0.703125 1.53125 2.015625q0.828125 -1.296875 2.140625 -2.015625q1.3125 -0.71875 2.90625 -0.71875q2.71875 0 4.015625 1.234375q1.296875 1.21875 1.296875 3.3125l0 11.859375l-2.625 0l0 -10.625q0 -1.734375 -0.734375 -2.59375q-0.734375 -0.859375 -2.375 -0.859375q-1.96875 0 -3.078125 1.15625q-1.109375 1.140625 -1.109375 2.84375l0 10.078125l-2.640625 0l0 -10.625q0 -1.734375 -0.734375 -2.59375q-0.71875 -0.859375 -2.265625 -0.859375q-1.265625 0 -2.234375 0.609375q-0.96875 0.59375 -1.515625 1.65625q-0.53125 1.046875 -0.53125 1.765625l0 10.046875l-2.640625 0l0 -16.03125l2.484375 0l0 2.359375l0.0625 0q0.90625 -1.375 2.1875 -2.046875q1.296875 -0.6875 2.984375 -0.6875zm21.519684 -5.734375l0 3.21875l-2.625 0l0 -3.21875l2.625 0zm0 6.109375l0 16.03125l-2.625 0l0 -16.03125l2.625 0zm11.875061 -0.375q2.890625 0 4.203125 1.484375q1.3125 1.484375 1.3125 4.25l0 10.671875l-2.640625 0l0 -10.953125q0 -1.359375 -0.875 -2.234375q-0.859375 -0.890625 -2.40625 -0.890625q-2.21875 0 -3.46875 1.375q-1.25 1.359375 -1.25 3.546875l0 9.15625l-2.640625 0l0 -16.03125l2.484375 0l0 2.53125l0.0625 0q0.875 -1.5 2.15625 -2.203125q1.28125 -0.703125 3.0625 -0.703125zm21.475922 -5.734375l0 11.046875l11.234375 -11.046875l3.828125 0l-9.34375 8.9375l9.703125 13.203125l-3.734375 0l-7.984375 -11.1875l-3.703125 3.4375l0 7.75l-2.9375 0l0 -22.140625l2.9375 0zm20.093445 0l0 3.21875l-2.625 0l0 -3.21875l2.625 0zm0 6.109375l0 16.03125l-2.625 0l0 -16.03125l2.625 0zm11.828186 -0.375q1.765625 0 2.875 0.71875q1.109375 0.703125 1.53125 2.015625q0.828125 -1.296875 2.140625 -2.015625q1.3125 -0.71875 2.90625 -0.71875q2.71875 0 4.015625 1.234375q1.296875 1.21875 1.296875 3.3125l0 11.859375l-2.625 0l0 -10.625q0 -1.734375 -0.734375 -2.59375q-0.734375 -0.859375 -2.375 -0.859375q-1.96875 0 -3.078125 1.15625q-1.109375 1.140625 -1.109375 2.84375l0 10.078125l-2.640625 0l0 -10.625q0 -1.734375 -0.734375 -2.59375q-0.71875 -0.859375 -2.265625 -0.859375q-1.265625 0 -2.234375 0.609375q-0.96875 0.59375 -1.515625 1.65625q-0.53125 1.046875 -0.53125 1.765625l0 10.046875l-2.640625 0l0 -16.03125l2.484375 0l0 2.359375l0.0625 0q0.90625 -1.375 2.1875 -2.046875q1.296875 -0.6875 2.984375 -0.6875zm33.91809 0q3.265625 0 4.625 1.171875q1.375 1.171875 1.375 3.125q0 8.34375 0 9.25q0 0.90625 0.84375 0.90625q0.171875 0 0.390625 -0.046875q0.21875 -0.046875 0.40625 -0.109375l0 2.046875q-0.359375 0.21875 -0.84375 0.328125q-0.46875 0.109375 -1.03125 0.109375q-1.09375 0 -1.671875 -0.609375q-0.578125 -0.609375 -0.578125 -1.875q-1.03125 1.25 -2.46875 1.875q-1.421875 0.609375 -3.171875 0.609375q-2.484375 0 -3.890625 -1.171875q-1.40625 -1.171875 -1.40625 -3.328125q0 -2.15625 1.375 -3.421875q1.375 -1.265625 6.484375 -1.90625q1.71875 -0.21875 2.328125 -0.65625q0.625 -0.453125 0.625 -1.328125q0 -1.328125 -0.859375 -1.984375q-0.859375 -0.65625 -2.71875 -0.65625q-1.953125 0 -2.9375 0.75q-0.96875 0.734375 -1.046875 2.28125l-2.640625 0q0.125 -2.65625 1.875 -4.0q1.765625 -1.359375 4.9375 -1.359375zm-4.640625 12.09375q0 1.109375 0.8125 1.734375q0.828125 0.625 2.296875 0.625q2.21875 0 3.546875 -1.109375q1.34375 -1.109375 1.34375 -2.46875l0 -2.75q-0.671875 0.46875 -1.734375 0.640625q-1.0625 0.15625 -2.8125 0.40625q-1.75 0.25 -2.609375 0.953125q-0.84375 0.6875 -0.84375 1.96875zm22.502502 -12.09375q2.890625 0 4.203125 1.484375q1.3125 1.484375 1.3125 4.25l0 10.671875l-2.640625 0l0 -10.953125q0 -1.359375 -0.875 -2.234375q-0.859375 -0.890625 -2.40625 -0.890625q-2.21875 0 -3.46875 1.375q-1.25 1.359375 -1.25 3.546875l0 9.15625l-2.640625 0l0 -16.03125l2.484375 0l0 2.53125l0.0625 0q0.875 -1.5 2.15625 -2.203125q1.28125 -0.703125 3.0625 -0.703125zm23.81195 -5.734375l0 22.140625l-2.640625 0l0 -2.171875l-0.0625 0q-0.609375 1.25 -1.96875 1.90625q-1.359375 0.640625 -3.140625 0.640625q-3.359375 0 -5.375 -2.328125q-2.0 -2.328125 -2.0 -6.109375q0 -3.703125 1.9375 -6.015625q1.953125 -2.328125 5.359375 -2.328125q1.578125 0 2.984375 0.640625q1.421875 0.640625 2.203125 1.859375l0.0625 0l0 -8.234375l2.640625 0zm-12.40625 14.25q0 2.59375 1.34375 4.265625q1.34375 1.671875 3.625 1.671875q2.328125 0 3.609375 -1.671875q1.28125 -1.671875 1.28125 -4.375q0 -2.734375 -1.328125 -4.40625q-1.3125 -1.671875 -3.765625 -1.671875q-2.265625 0 -3.515625 1.65625q-1.25 1.65625 -1.25 4.53125zm26.47116 -14.25l4.34375 18.421875l0.0625 0l4.96875 -18.421875l3.203125 0l4.890625 18.421875l0.0625 0l4.484375 -18.421875l2.953125 0l-5.921875 22.140625l-3.0625 0l-5.0625 -18.609375l-0.0625 0l-5.125 18.609375l-3.0625 0l-5.671875 -22.140625l3.0 0zm30.134583 0l0 3.21875l-2.625 0l0 -3.21875l2.625 0zm0 6.109375l0 16.03125l-2.625 0l0 -16.03125l2.625 0zm6.890686 -6.109375l0 22.140625l-2.625 0l0 -22.140625l2.625 0zm6.890686 0l0 22.140625l-2.625 0l0 -22.140625l2.625 0zm20.601562 -0.53125q3.6875 0 5.859375 1.796875q2.171875 1.78125 2.296875 5.21875l-2.78125 0q-0.25 -2.28125 -1.640625 -3.40625q-1.375 -1.125 -3.859375 -1.125q-2.359375 0 -3.671875 0.984375q-1.296875 0.96875 -1.296875 2.78125q0 1.3125 1.109375 2.140625q1.125 0.828125 6.015625 1.8125q3.546875 0.734375 5.296875 2.234375q1.765625 1.5 1.765625 4.15625q0 3.09375 -2.53125 4.859375q-2.515625 1.75 -6.140625 1.75q-4.015625 0 -6.5625 -2.015625q-2.53125 -2.015625 -2.5625 -5.796875l2.78125 0q0.03125 2.53125 1.8125 3.9375q1.78125 1.390625 4.640625 1.390625q2.671875 0 4.140625 -1.03125q1.46875 -1.046875 1.46875 -3.0q0 -1.578125 -1.34375 -2.53125q-1.34375 -0.953125 -4.890625 -1.625q-4.71875 -0.90625 -6.328125 -2.3125q-1.609375 -1.421875 -1.609375 -3.734375q0 -2.984375 2.265625 -4.734375q2.265625 -1.75 5.765625 -1.75zm15.802551 1.828125l0 4.8125l3.1875 0l0 2.328125l-3.1875 0l0 10.03125q0 1.203125 0.78125 1.28125q0.796875 0.0625 1.671875 0.0625l0.734375 0l0 2.328125l-2.1875 0q-2.15625 0 -2.90625 -0.765625q-0.734375 -0.78125 -0.734375 -2.59375l0 -10.34375l-2.75 0l0 -2.328125l2.75 0l0 -4.8125l2.640625 0zm8.877502 -1.296875l0 3.21875l-2.625 0l0 -3.21875l2.625 0zm0 6.109375l0 16.03125l-2.625 0l0 -16.03125l2.625 0zm6.890686 -6.109375l0 22.140625l-2.625 0l0 -22.140625l2.625 0zm6.890686 0l0 22.140625l-2.625 0l0 -22.140625l2.625 0zm10.765686 5.734375q3.453125 0 5.359375 2.484375q1.921875 2.484375 1.921875 6.375l0 0.328125l-12.015625 0l0 0.1875q0 2.296875 1.328125 3.6875q1.34375 1.390625 3.671875 1.390625q1.75 0 2.78125 -0.8125q1.046875 -0.828125 1.359375 -2.328125l2.609375 0q-0.53125 2.671875 -2.328125 4.078125q-1.796875 1.390625 -4.515625 1.390625q-2.53125 0 -4.28125 -1.140625q-1.75 -1.140625 -2.578125 -3.171875q-0.828125 -2.046875 -0.828125 -4.1875q0 -3.53125 2.125 -5.90625q2.140625 -2.375 5.390625 -2.375zm-4.734375 6.84375l9.203125 0q-0.109375 -1.953125 -1.40625 -3.234375q-1.296875 -1.28125 -3.234375 -1.28125q-1.828125 0 -3.109375 1.234375q-1.28125 1.21875 -1.453125 3.28125zm22.721313 -6.859375q0.09375 0 0.15625 0q0.078125 0 0.203125 0.015625l0 2.796875q-2.96875 0 -4.390625 1.578125q-1.40625 1.5625 -1.40625 4.859375l0 7.171875l-2.640625 0l0 -16.03125l2.484375 0l0 3.375l0.0625 0q0.921875 -1.90625 2.28125 -2.828125q1.359375 -0.9375 3.25 -0.9375z" fill-rule="nonzero"/><path fill="#000000" fill-opacity="0.0" d="m337.48032 348.6063l370.3937 0l0 59.496063l-370.3937 0z" fill-rule="evenodd"/><path fill="#000000" d="m347.35532 357.72043l0 1.078125q0 0.15625 -0.109375 0.265625q-0.09375 0.109375 -0.3125 0.109375q-0.1875 0 -0.296875 -0.09375q-0.109375 -0.109375 -0.109375 -0.359375l0 -0.046875l0.1875 0l0 0.046875q0 0.171875 0.046875 0.234375q0.0625 0.0625 0.1875 0.0625q0.109375 0 0.15625 -0.0625q0.0625 -0.0625 0.0625 -0.1875l0 -1.046875l0.1875 0zm0.47558594 0l0 0.203125l-0.171875 0l0 -0.203125l0.171875 0zm0 0.390625l0 1.03125l-0.171875 0l0 -1.03125l0.171875 0zm0.75683594 -0.03125q0.109375 0 0.1875 0.046875q0.078125 0.046875 0.09375 0.140625q0.0625 -0.09375 0.140625 -0.140625q0.09375 -0.046875 0.1875 -0.046875q0.171875 0 0.25 0.078125q0.09375 0.078125 0.09375 0.21875l0 0.765625l-0.171875 0l0 -0.6875q0 -0.109375 -0.046875 -0.15625q-0.046875 -0.0625 -0.15625 -0.0625q-0.125 0 -0.203125 0.078125q-0.0625 0.0625 -0.0625 0.171875l0 0.65625l-0.171875 0l0 -0.6875q0 -0.109375 -0.046875 -0.15625q-0.046875 -0.0625 -0.140625 -0.0625q-0.078125 0 -0.140625 0.046875q-0.0625 0.03125 -0.109375 0.109375q-0.03125 0.0625 -0.03125 0.109375l0 0.640625l-0.171875 0l0 -1.03125l0.15625 0l0 0.15625l0.015625 0q0.046875 -0.09375 0.125 -0.140625q0.09375 -0.046875 0.203125 -0.046875zm1.3935547 -0.359375l0 0.203125l-0.171875 0l0 -0.203125l0.171875 0zm0 0.390625l0 1.03125l-0.171875 0l0 -1.03125l0.171875 0zm0.75683594 -0.03125q0.1875 0 0.265625 0.109375q0.09375 0.09375 0.09375 0.265625l0 0.6875l-0.171875 0l0 -0.703125q0 -0.09375 -0.0625 -0.140625q-0.046875 -0.0625 -0.140625 -0.0625q-0.15625 0 -0.234375 0.09375q-0.078125 0.078125 -0.078125 0.21875l0 0.59375l-0.171875 0l0 -1.03125l0.15625 0l0 0.15625l0.015625 0q0.046875 -0.09375 0.125 -0.140625q0.09375 -0.046875 0.203125 -0.046875zm1.3867188 -0.359375l0 0.703125l0.734375 -0.703125l0.234375 0l-0.59375 0.5625l0.625 0.859375l-0.25 0l-0.515625 -0.71875l-0.234375 0.21875l0 0.5l-0.1875 0l0 -1.421875l0.1875 0zm1.3027344 0l0 0.203125l-0.171875 0l0 -0.203125l0.171875 0zm0 0.390625l0 1.03125l-0.171875 0l0 -1.03125l0.171875 0zm0.75683594 -0.03125q0.109375 0 0.1875 0.046875q0.078125 0.046875 0.09375 0.140625q0.0625 -0.09375 0.140625 -0.140625q0.09375 -0.046875 0.1875 -0.046875q0.171875 0 0.25 0.078125q0.09375 0.078125 0.09375 0.21875l0 0.765625l-0.171875 0l0 -0.6875q0 -0.109375 -0.046875 -0.15625q-0.046875 -0.0625 -0.15625 -0.0625q-0.125 0 -0.203125 0.078125q-0.0625 0.0625 -0.0625 0.171875l0 0.65625l-0.171875 0l0 -0.6875q0 -0.109375 -0.046875 -0.15625q-0.046875 -0.0625 -0.140625 -0.0625q-0.078125 0 -0.140625 0.046875q-0.0625 0.03125 -0.109375 0.109375q-0.03125 0.0625 -0.03125 0.109375l0 0.640625l-0.171875 0l0 -1.03125l0.15625 0l0 0.15625l0.015625 0q0.046875 -0.09375 0.125 -0.140625q0.09375 -0.046875 0.203125 -0.046875zm2.1835938 0q0.21875 0 0.296875 0.078125q0.09375 0.078125 0.09375 0.203125q0 0.53125 0 0.59375q0 0.0625 0.0625 0.0625q0 0 0.015625 0q0.015625 0 0.03125 -0.015625l0 0.140625q-0.03125 0.015625 -0.0625 0.015625q-0.03125 0.015625 -0.0625 0.015625q-0.0625 0 -0.109375 -0.046875q-0.03125 -0.046875 -0.03125 -0.125q-0.0625 0.078125 -0.15625 0.125q-0.09375 0.046875 -0.203125 0.046875q-0.171875 0 -0.265625 -0.078125q-0.078125 -0.078125 -0.078125 -0.21875q0 -0.140625 0.078125 -0.21875q0.09375 -0.078125 0.421875 -0.125q0.109375 -0.015625 0.140625 -0.046875q0.046875 -0.03125 0.046875 -0.078125q0 -0.09375 -0.0625 -0.125q-0.046875 -0.046875 -0.15625 -0.046875q-0.140625 0 -0.203125 0.046875q-0.0625 0.046875 -0.0625 0.140625l-0.171875 0q0.015625 -0.171875 0.125 -0.25q0.109375 -0.09375 0.3125 -0.09375zm-0.296875 0.78125q0 0.078125 0.046875 0.125q0.0625 0.03125 0.15625 0.03125q0.140625 0 0.21875 -0.0625q0.09375 -0.078125 0.09375 -0.171875l0 -0.171875q-0.046875 0.03125 -0.109375 0.046875q-0.0625 0 -0.1875 0.015625q-0.109375 0.015625 -0.171875 0.0625q-0.046875 0.046875 -0.046875 0.125zm1.4492188 -0.78125q0.1875 0 0.265625 0.109375q0.09375 0.09375 0.09375 0.265625l0 0.6875l-0.171875 0l0 -0.703125q0 -0.09375 -0.0625 -0.140625q-0.046875 -0.0625 -0.140625 -0.0625q-0.15625 0 -0.234375 0.09375q-0.078125 0.078125 -0.078125 0.21875l0 0.59375l-0.171875 0l0 -1.03125l0.15625 0l0 0.15625l0.015625 0q0.046875 -0.09375 0.125 -0.140625q0.09375 -0.046875 0.203125 -0.046875zm1.5341797 -0.359375l0 1.421875l-0.171875 0l0 -0.140625l0 0q-0.03125 0.078125 -0.125 0.125q-0.09375 0.046875 -0.203125 0.046875q-0.21875 0 -0.34375 -0.15625q-0.125 -0.15625 -0.125 -0.390625q0 -0.25 0.125 -0.390625q0.125 -0.15625 0.34375 -0.15625q0.09375 0 0.1875 0.046875q0.09375 0.046875 0.140625 0.125l0 0l0 -0.53125l0.171875 0zm-0.796875 0.90625q0 0.171875 0.078125 0.28125q0.09375 0.109375 0.25 0.109375q0.140625 0 0.21875 -0.109375q0.09375 -0.109375 0.09375 -0.28125q0 -0.171875 -0.09375 -0.28125q-0.078125 -0.109375 -0.234375 -0.109375q-0.15625 0 -0.234375 0.109375q-0.078125 0.109375 -0.078125 0.28125zm1.7099609 -0.90625l0.28125 1.1875l0 0l0.328125 -1.1875l0.203125 0l0.3125 1.1875l0 0l0.296875 -1.1875l0.1875 0l-0.375 1.421875l-0.203125 0l-0.328125 -1.203125l0 0l-0.328125 1.203125l-0.203125 0l-0.359375 -1.421875l0.1875 0zm1.9472656 0l0 0.203125l-0.171875 0l0 -0.203125l0.171875 0zm0 0.390625l0 1.03125l-0.171875 0l0 -1.03125l0.171875 0zm0.44433594 -0.390625l0 1.421875l-0.171875 0l0 -1.421875l0.171875 0zm0.44433594 0l0 1.421875l-0.171875 0l0 -1.421875l0.171875 0zm1.328125 -0.046875q0.234375 0 0.375 0.125q0.140625 0.109375 0.140625 0.328125l-0.171875 0q-0.015625 -0.140625 -0.109375 -0.203125q-0.09375 -0.078125 -0.25 -0.078125q-0.15625 0 -0.234375 0.0625q-0.078125 0.0625 -0.078125 0.171875q0 0.09375 0.0625 0.140625q0.078125 0.046875 0.390625 0.125q0.234375 0.046875 0.34375 0.140625q0.109375 0.09375 0.109375 0.265625q0 0.203125 -0.171875 0.3125q-0.15625 0.109375 -0.390625 0.109375q-0.25 0 -0.421875 -0.125q-0.15625 -0.125 -0.15625 -0.375l0.171875 0q0 0.15625 0.109375 0.25q0.125 0.09375 0.3125 0.09375q0.171875 0 0.265625 -0.0625q0.09375 -0.078125 0.09375 -0.203125q0 -0.09375 -0.09375 -0.15625q-0.078125 -0.0625 -0.3125 -0.109375q-0.296875 -0.0625 -0.40625 -0.140625q-0.09375 -0.09375 -0.09375 -0.25q0 -0.1875 0.140625 -0.296875q0.140625 -0.125 0.375 -0.125zm1.0087891 0.125l0 0.3125l0.21875 0l0 0.140625l-0.21875 0l0 0.65625q0 0.078125 0.046875 0.078125q0.0625 0 0.109375 0l0.0625 0l0 0.15625l-0.140625 0q-0.140625 0 -0.203125 -0.046875q-0.046875 -0.046875 -0.046875 -0.171875l0 -0.671875l-0.171875 0l0 -0.140625l0.171875 0l0 -0.3125l0.171875 0zm0.5830078 -0.078125l0 0.203125l-0.171875 0l0 -0.203125l0.171875 0zm0 0.390625l0 1.03125l-0.171875 0l0 -1.03125l0.171875 0zm0.44433594 -0.390625l0 1.421875l-0.171875 0l0 -1.421875l0.171875 0zm0.44433594 0l0 1.421875l-0.171875 0l0 -1.421875l0.171875 0zm0.69433594 0.359375q0.21875 0 0.34375 0.171875q0.125 0.15625 0.125 0.40625l0 0.015625l-0.78125 0l0 0.015625q0 0.140625 0.078125 0.234375q0.09375 0.09375 0.25 0.09375q0.109375 0 0.171875 -0.046875q0.078125 -0.0625 0.09375 -0.15625l0.171875 0q-0.046875 0.171875 -0.15625 0.265625q-0.109375 0.09375 -0.296875 0.09375q-0.15625 0 -0.265625 -0.078125q-0.109375 -0.078125 -0.171875 -0.203125q-0.046875 -0.140625 -0.046875 -0.28125q0 -0.21875 0.125 -0.375q0.140625 -0.15625 0.359375 -0.15625zm-0.3125 0.453125l0.59375 0q0 -0.140625 -0.09375 -0.21875q-0.078125 -0.078125 -0.203125 -0.078125q-0.125 0 -0.203125 0.078125q-0.078125 0.078125 -0.09375 0.21875zm1.4648438 -0.453125q0.015625 0 0.015625 0q0 0 0.015625 0l0 0.1875q-0.203125 0 -0.296875 0.109375q-0.078125 0.09375 -0.078125 0.296875l0 0.46875l-0.171875 0l0 -1.03125l0.15625 0l0 0.21875l0 0q0.0625 -0.125 0.140625 -0.1875q0.09375 -0.0625 0.21875 -0.0625z" fill-rule="nonzero"/><path fill="#000000" fill-opacity="0.0" d="m346.48032 359.11264l275.89304 0l0 19.54834l-275.89304 0l0 -19.54834z" fill-rule="nonzero"/><path fill="#4dd0e1" d="m349.23032 374.5023l-2.703125 -8.8125l1.546875 0l1.40625 5.078125l0.515625 1.90625q0.03125 -0.140625 0.453125 -1.828125l1.40625 -5.15625l1.546875 0l1.3125 5.109375l0.4375 1.6875l0.515625 -1.703125l1.5 -5.09375l1.453125 0l-2.75 8.8125l-1.546875 0l-1.40625 -5.28125l-0.34375 -1.5l-1.78125 6.78125l-1.5625 0zm10.651855 -10.453125l0 -1.71875l1.5 0l0 1.71875l-1.5 0zm0 10.453125l0 -8.8125l1.5 0l0 8.8125l-1.5 0zm3.7456055 0l0 -12.171875l1.484375 0l0 12.171875l-1.484375 0zm3.7768555 0l0 -12.171875l1.484375 0l0 12.171875l-1.484375 0zm3.1987305 -2.625l1.484375 -0.234375q0.125 0.890625 0.6875 1.359375q0.578125 0.46875 1.59375 0.46875q1.03125 0 1.53125 -0.421875q0.5 -0.421875 0.5 -0.984375q0 -0.5 -0.4375 -0.796875q-0.3125 -0.1875 -1.53125 -0.5q-1.640625 -0.421875 -2.28125 -0.71875q-0.640625 -0.296875 -0.96875 -0.828125q-0.328125 -0.546875 -0.328125 -1.1875q0 -0.59375 0.265625 -1.09375q0.28125 -0.5 0.75 -0.84375q0.34375 -0.25 0.9375 -0.421875q0.609375 -0.1875 1.296875 -0.1875q1.046875 0 1.828125 0.296875q0.78125 0.296875 1.15625 0.8125q0.375 0.515625 0.515625 1.359375l-1.46875 0.203125q-0.09375 -0.671875 -0.578125 -1.046875q-0.46875 -0.390625 -1.34375 -0.390625q-1.03125 0 -1.46875 0.34375q-0.4375 0.328125 -0.4375 0.78125q0 0.296875 0.1875 0.53125q0.171875 0.234375 0.5625 0.390625q0.234375 0.09375 1.328125 0.390625q1.578125 0.421875 2.203125 0.6875q0.625 0.265625 0.984375 0.78125q0.359375 0.515625 0.359375 1.28125q0 0.75 -0.4375 1.421875q-0.4375 0.65625 -1.265625 1.015625q-0.8125 0.359375 -1.84375 0.359375q-1.71875 0 -2.625 -0.71875q-0.90625 -0.71875 -1.15625 -2.109375zm12.375 1.28125l0.203125 1.328125q-0.625 0.125 -1.125 0.125q-0.8125 0 -1.265625 -0.25q-0.4375 -0.265625 -0.625 -0.671875q-0.1875 -0.421875 -0.1875 -1.765625l0 -5.078125l-1.09375 0l0 -1.15625l1.09375 0l0 -2.1875l1.484375 -0.890625l0 3.078125l1.515625 0l0 1.15625l-1.515625 0l0 5.15625q0 0.640625 0.078125 0.828125q0.078125 0.171875 0.25 0.28125q0.1875 0.109375 0.53125 0.109375q0.234375 0 0.65625 -0.0625zm1.4575195 -9.109375l0 -1.71875l1.5 0l0 1.71875l-1.5 0zm0 10.453125l0 -8.8125l1.5 0l0 8.8125l-1.5 0zm3.7456055 0l0 -12.171875l1.484375 0l0 12.171875l-1.484375 0zm3.7768555 0l0 -12.171875l1.484375 0l0 12.171875l-1.484375 0zm4.2299805 0l0 -1.703125l1.703125 0l0 1.703125l-1.703125 0zm4.0200195 0.734375l1.453125 0.21875q0.09375 0.671875 0.515625 0.96875q0.546875 0.421875 1.515625 0.421875q1.03125 0 1.59375 -0.421875q0.5625 -0.40625 0.765625 -1.15625q0.125 -0.453125 0.109375 -1.921875q-0.984375 1.15625 -2.4375 1.15625q-1.8125 0 -2.8125 -1.3125q-1.0 -1.3125 -1.0 -3.140625q0 -1.265625 0.453125 -2.328125q0.46875 -1.078125 1.328125 -1.65625q0.875 -0.578125 2.03125 -0.578125q1.5625 0 2.578125 1.265625l0 -1.0625l1.375 0l0 7.609375q0 2.0625 -0.421875 2.921875q-0.40625 0.859375 -1.328125 1.359375q-0.90625 0.5 -2.234375 0.5q-1.578125 0 -2.546875 -0.71875q-0.96875 -0.703125 -0.9375 -2.125zm1.234375 -5.296875q0 1.734375 0.6875 2.53125q0.703125 0.796875 1.734375 0.796875q1.03125 0 1.71875 -0.796875q0.703125 -0.796875 0.703125 -2.484375q0 -1.625 -0.71875 -2.4375q-0.71875 -0.828125 -1.734375 -0.828125q-0.984375 0 -1.6875 0.8125q-0.703125 0.8125 -0.703125 2.40625zm8.501465 -5.890625l0 -1.71875l1.5 0l0 1.71875l-1.5 0zm0 10.453125l0 -8.8125l1.5 0l0 8.8125l-1.5 0zm7.0424805 -1.34375l0.203125 1.328125q-0.625 0.125 -1.125 0.125q-0.8125 0 -1.265625 -0.25q-0.4375 -0.265625 -0.625 -0.671875q-0.1875 -0.421875 -0.1875 -1.765625l0 -5.078125l-1.09375 0l0 -1.15625l1.09375 0l0 -2.1875l1.484375 -0.890625l0 3.078125l1.515625 0l0 1.15625l-1.515625 0l0 5.15625q0 0.640625 0.078125 0.828125q0.078125 0.171875 0.25 0.28125q0.1875 0.109375 0.53125 0.109375q0.234375 0 0.65625 -0.0625zm1.4575195 1.34375l0 -12.171875l1.484375 0l0 4.375q1.046875 -1.21875 2.640625 -1.21875q0.984375 0 1.703125 0.390625q0.71875 0.375 1.03125 1.0625q0.3125 0.6875 0.3125 1.96875l0 5.59375l-1.484375 0l0 -5.59375q0 -1.109375 -0.5 -1.625q-0.484375 -0.515625 -1.359375 -0.515625q-0.671875 0 -1.265625 0.34375q-0.578125 0.34375 -0.828125 0.9375q-0.25 0.59375 -0.25 1.625l0 4.828125l-1.484375 0zm15.220215 0l0 -1.296875q-1.015625 1.5 -2.796875 1.5q-0.765625 0 -1.453125 -0.296875q-0.671875 -0.3125 -1.0 -0.75q-0.328125 -0.453125 -0.46875 -1.109375q-0.078125 -0.453125 -0.078125 -1.40625l0 -5.453125l1.484375 0l0 4.890625q0 1.171875 0.09375 1.578125q0.140625 0.578125 0.59375 0.921875q0.46875 0.328125 1.140625 0.328125q0.671875 0 1.25 -0.34375q0.59375 -0.34375 0.828125 -0.9375q0.25 -0.59375 0.25 -1.71875l0 -4.71875l1.5 0l0 8.8125l-1.34375 0zm5.063965 0l-1.390625 0l0 -12.171875l1.5 0l0 4.34375q0.9375 -1.1875 2.40625 -1.1875q0.8125 0 1.53125 0.328125q0.734375 0.328125 1.203125 0.921875q0.46875 0.59375 0.734375 1.4375q0.265625 0.828125 0.265625 1.78125q0 2.265625 -1.125 3.515625q-1.109375 1.234375 -2.671875 1.234375q-1.5625 0 -2.453125 -1.3125l0 1.109375zm-0.015625 -4.46875q0 1.578125 0.421875 2.28125q0.71875 1.15625 1.921875 1.15625q0.96875 0 1.6875 -0.84375q0.71875 -0.859375 0.71875 -2.546875q0 -1.71875 -0.6875 -2.53125q-0.6875 -0.828125 -1.65625 -0.828125q-0.984375 0 -1.703125 0.859375q-0.703125 0.84375 -0.703125 2.453125zm8.51709 4.46875l0 -1.703125l1.703125 0l0 1.703125l-1.703125 0zm4.3012695 -10.453125l0 -1.71875l1.5 0l0 1.71875l-1.5 0zm0 10.453125l0 -8.8125l1.5 0l0 8.8125l-1.5 0zm3.2143555 -4.40625q0 -2.453125 1.359375 -3.625q1.140625 -0.984375 2.78125 -0.984375q1.8125 0 2.96875 1.203125q1.15625 1.1875 1.15625 3.28125q0 1.703125 -0.515625 2.6875q-0.515625 0.96875 -1.484375 1.515625q-0.96875 0.53125 -2.125 0.53125q-1.859375 0 -3.0 -1.1875q-1.140625 -1.1875 -1.140625 -3.421875zm1.53125 0q0 1.6875 0.734375 2.53125q0.75 0.84375 1.875 0.84375q1.109375 0 1.84375 -0.84375q0.734375 -0.84375 0.734375 -2.578125q0 -1.640625 -0.75 -2.484375q-0.734375 -0.84375 -1.828125 -0.84375q-1.125 0 -1.875 0.84375q-0.734375 0.84375 -0.734375 2.53125zm7.36084 4.609375l3.53125 -12.578125l1.1875 0l-3.515625 12.578125l-1.203125 0zm6.0356445 -0.203125l0 -12.171875l4.1875 0q1.421875 0 2.171875 0.171875q1.046875 0.25 1.78125 0.875q0.96875 0.8125 1.4375 2.078125q0.484375 1.265625 0.484375 2.890625q0 1.390625 -0.328125 2.46875q-0.328125 1.0625 -0.828125 1.765625q-0.5 0.703125 -1.109375 1.109375q-0.59375 0.390625 -1.453125 0.609375q-0.84375 0.203125 -1.953125 0.203125l-4.390625 0zm1.609375 -1.4375l2.59375 0q1.203125 0 1.890625 -0.21875q0.6875 -0.234375 1.09375 -0.640625q0.578125 -0.5625 0.890625 -1.53125q0.328125 -0.96875 0.328125 -2.34375q0 -1.90625 -0.640625 -2.9375q-0.625 -1.03125 -1.515625 -1.375q-0.640625 -0.25 -2.078125 -0.25l-2.5625 0l0 9.296875zm10.933105 1.4375l0 -12.171875l1.625 0l0 12.171875l-1.625 0zm10.14502 -4.765625l0 -1.4375l5.15625 0l0 4.515625q-1.1875 0.9375 -2.453125 1.421875q-1.25 0.46875 -2.578125 0.46875q-1.796875 0 -3.265625 -0.765625q-1.453125 -0.765625 -2.203125 -2.21875q-0.75 -1.453125 -0.75 -3.25q0 -1.765625 0.734375 -3.296875q0.75 -1.546875 2.140625 -2.296875q1.40625 -0.75 3.21875 -0.75q1.3125 0 2.375 0.4375q1.078125 0.421875 1.671875 1.1875q0.609375 0.75 0.9375 1.984375l-1.453125 0.390625q-0.28125 -0.921875 -0.6875 -1.453125q-0.40625 -0.53125 -1.171875 -0.84375q-0.75 -0.328125 -1.671875 -0.328125q-1.09375 0 -1.90625 0.34375q-0.796875 0.328125 -1.296875 0.875q-0.5 0.546875 -0.765625 1.203125q-0.46875 1.125 -0.46875 2.453125q0 1.625 0.5625 2.71875q0.5625 1.09375 1.625 1.625q1.078125 0.53125 2.28125 0.53125q1.046875 0 2.03125 -0.390625q1.0 -0.40625 1.515625 -0.859375l0 -2.265625l-3.578125 0zm7.8012695 4.765625l0 -12.171875l1.625 0l0 12.171875l-1.625 0zm7.5512695 0l0 -10.734375l-4.0 0l0 -1.4375l9.6405945 0l0 1.4375l-4.0312195 0l0 10.734375l-1.609375 0zm11.477997 0l0 -2.90625l-5.28125 0l0 -1.375l5.546875 -7.890625l1.21875 0l0 7.890625l1.65625 0l0 1.375l-1.65625 0l0 2.90625l-1.484375 0zm0 -4.28125l0 -5.484375l-3.8125 5.484375l3.8125 0zm4.657715 -1.71875q0 -2.15625 0.4375 -3.46875q0.453125 -1.328125 1.328125 -2.03125q0.875 -0.71875 2.203125 -0.71875q0.984375 0 1.71875 0.390625q0.734375 0.390625 1.21875 1.140625q0.484375 0.75 0.75 1.8125q0.28125 1.0625 0.28125 2.875q0 2.140625 -0.4375 3.453125q-0.4375 1.3125 -1.3125 2.03125q-0.875 0.71875 -2.21875 0.71875q-1.765625 0 -2.765625 -1.25q-1.203125 -1.53125 -1.203125 -4.953125zm1.53125 0q0 3.0 0.703125 4.0q0.703125 0.984375 1.734375 0.984375q1.03125 0 1.734375 -1.0q0.703125 -1.0 0.703125 -3.984375q0 -3.0 -0.703125 -3.984375q-0.703125 -1.0 -1.75 -1.0q-1.03125 0 -1.640625 0.875q-0.78125 1.109375 -0.78125 4.109375zm7.92334 0q0 -2.15625 0.4375 -3.46875q0.453125 -1.328125 1.328125 -2.03125q0.875 -0.71875 2.203125 -0.71875q0.984375 0 1.71875 0.390625q0.734375 0.390625 1.21875 1.140625q0.484375 0.75 0.75 1.8125q0.28125 1.0625 0.28125 2.875q0 2.140625 -0.4375 3.453125q-0.4375 1.3125 -1.3125 2.03125q-0.875 0.71875 -2.21875 0.71875q-1.765625 0 -2.765625 -1.25q-1.203125 -1.53125 -1.203125 -4.953125zm1.53125 0q0 3.0 0.703125 4.0q0.703125 0.984375 1.734375 0.984375q1.03125 0 1.734375 -1.0q0.703125 -1.0 0.703125 -3.984375q0 -3.0 -0.703125 -3.984375q-0.703125 -1.0 -1.75 -1.0q-1.03125 0 -1.640625 0.875q-0.78125 1.109375 -0.78125 4.109375zm7.188965 6.0l4.6875 -12.171875l1.734375 0l4.96875 12.171875l-1.828125 0l-1.421875 -3.6875l-5.09375 0l-1.328125 3.6875l-1.71875 0zm3.515625 -5.0l4.125 0l-1.265625 -3.375q-0.578125 -1.53125 -0.859375 -2.515625q-0.234375 1.171875 -0.65625 2.328125l-1.34375 3.5625zm8.979492 5.0l0 -8.8125l1.34375 0l0 1.25q0.96875 -1.453125 2.796875 -1.453125q0.796875 0 1.46875 0.296875q0.671875 0.28125 1.0 0.75q0.328125 0.453125 0.46875 1.09375q0.078125 0.421875 0.078125 1.453125l0 5.421875l-1.484375 0l0 -5.359375q0 -0.921875 -0.1875 -1.375q-0.171875 -0.453125 -0.625 -0.71875q-0.4375 -0.265625 -1.03125 -0.265625q-0.953125 0 -1.65625 0.609375q-0.6875 0.59375 -0.6875 2.296875l0 4.8125l-1.484375 0zm9.45459 -10.453125l0 -1.71875l1.5 0l0 1.71875l-1.5 0zm0 10.453125l0 -8.8125l1.5 0l0 8.8125l-1.5 0zm3.7768555 0l0 -8.8125l1.328125 0l0 1.234375q0.421875 -0.640625 1.109375 -1.03125q0.6875 -0.40625 1.5625 -0.40625q0.984375 0 1.609375 0.40625q0.625 0.40625 0.890625 1.140625q1.046875 -1.546875 2.71875 -1.546875q1.3125 0 2.015625 0.734375q0.703125 0.71875 0.703125 2.234375l0 6.046875l-1.484375 0l0 -5.546875q0 -0.90625 -0.140625 -1.296875q-0.140625 -0.390625 -0.53125 -0.625q-0.375 -0.25 -0.890625 -0.25q-0.9375 0 -1.546875 0.625q-0.609375 0.609375 -0.609375 1.96875l0 5.125l-1.5 0l0 -5.734375q0 -0.984375 -0.375 -1.484375q-0.359375 -0.5 -1.1875 -0.5q-0.625 0 -1.171875 0.328125q-0.53125 0.328125 -0.78125 0.96875q-0.234375 0.640625 -0.234375 1.84375l0 4.578125l-1.484375 0zm19.911133 -1.09375q-0.828125 0.71875 -1.609375 1.015625q-0.765625 0.28125 -1.640625 0.28125q-1.453125 0 -2.234375 -0.703125q-0.78125 -0.71875 -0.78125 -1.828125q0 -0.640625 0.296875 -1.171875q0.296875 -0.546875 0.765625 -0.859375q0.484375 -0.328125 1.078125 -0.5q0.453125 -0.109375 1.328125 -0.21875q1.8125 -0.21875 2.671875 -0.515625q0 -0.3125 0 -0.390625q0 -0.90625 -0.421875 -1.28125q-0.5625 -0.515625 -1.703125 -0.515625q-1.046875 0 -1.546875 0.375q-0.5 0.359375 -0.75 1.3125l-1.453125 -0.203125q0.203125 -0.9375 0.65625 -1.515625q0.453125 -0.578125 1.3125 -0.890625q0.859375 -0.3125 2.0 -0.3125q1.140625 0 1.84375 0.265625q0.703125 0.265625 1.03125 0.671875q0.328125 0.40625 0.46875 1.015625q0.078125 0.375 0.078125 1.375l0 2.0q0 2.078125 0.09375 2.640625q0.09375 0.546875 0.375 1.046875l-1.5625 0q-0.234375 -0.46875 -0.296875 -1.09375zm-0.125 -3.328125q-0.8125 0.328125 -2.4375 0.5625q-0.921875 0.125 -1.3125 0.296875q-0.375 0.171875 -0.59375 0.5q-0.203125 0.3125 -0.203125 0.703125q0 0.59375 0.453125 1.0q0.453125 0.390625 1.328125 0.390625q0.859375 0 1.53125 -0.375q0.671875 -0.390625 1.0 -1.03125q0.234375 -0.515625 0.234375 -1.5l0 -0.546875zm7.095215 3.078125l0.203125 1.328125q-0.625 0.125 -1.125 0.125q-0.8125 0 -1.265625 -0.25q-0.4375 -0.265625 -0.625 -0.671875q-0.1875 -0.421875 -0.1875 -1.765625l0 -5.078125l-1.09375 0l0 -1.15625l1.09375 0l0 -2.1875l1.484375 -0.890625l0 3.078125l1.515625 0l0 1.15625l-1.515625 0l0 5.15625q0 0.640625 0.078125 0.828125q0.078125 0.171875 0.25 0.28125q0.1875 0.109375 0.53125 0.109375q0.234375 0 0.65625 -0.0625zm1.4575195 -9.109375l0 -1.71875l1.5 0l0 1.71875l-1.5 0zm0 10.453125l0 -8.8125l1.5 0l0 8.8125l-1.5 0zm3.2143555 -4.40625q0 -2.453125 1.359375 -3.625q1.140625 -0.984375 2.78125 -0.984375q1.8125 0 2.96875 1.203125q1.15625 1.1875 1.15625 3.28125q0 1.703125 -0.515625 2.6875q-0.515625 0.96875 -1.484375 1.515625q-0.96875 0.53125 -2.125 0.53125q-1.859375 0 -3.0 -1.1875q-1.140625 -1.1875 -1.140625 -3.421875zm1.53125 0q0 1.6875 0.734375 2.53125q0.75 0.84375 1.875 0.84375q1.109375 0 1.84375 -0.84375q0.734375 -0.84375 0.734375 -2.578125q0 -1.640625 -0.75 -2.484375q-0.734375 -0.84375 -1.828125 -0.84375q-1.125 0 -1.875 0.84375q-0.734375 0.84375 -0.734375 2.53125zm8.48584 4.40625l0 -8.8125l1.34375 0l0 1.25q0.96875 -1.453125 2.796875 -1.453125q0.796875 0 1.46875 0.296875q0.671875 0.28125 1.0 0.75q0.328125 0.453125 0.46875 1.09375q0.078125 0.421875 0.078125 1.453125l0 5.421875l-1.484375 0l0 -5.359375q0 -0.921875 -0.1875 -1.375q-0.171875 -0.453125 -0.625 -0.71875q-0.4375 -0.265625 -1.03125 -0.265625q-0.953125 0 -1.65625 0.609375q-0.6875 0.59375 -0.6875 2.296875l0 4.8125l-1.484375 0zm8.32959 0.203125l3.53125 -12.578125l1.1875 0l-3.515625 12.578125l-1.203125 0z" fill-rule="nonzero"/><path fill="#010000" fill-opacity="0.0" d="m622.37335 355.69324l0 0l0 24.358337l0 0l0 -24.358337z" fill-rule="nonzero"/><path fill="#4dd0e1" d="m346.48032 375.6073l275.89304 0l0 1.5299988l-275.89304 0l0 -1.5299988z" fill-rule="nonzero"/><a xlink:href="https://www.google.com/url?q=https://willstill.github.io/DIGIT400Animation/&amp;sa=D&amp;source=editors&amp;ust=1696983759968430&amp;usg=AOvVaw3bG0sVtAEVXy0h70yyo4Sv" target="_blank" rel="noreferrer"><path fill="transparent" fill-opacity="0" d="m346.48032 361.4463l275.89304 0l0 16.320007l-275.89304 0l0 -16.320007z" fill-rule="nonzero"/></a></g></svg>